<?xml version="1.0" encoding="UTF-8"?>
<svg data-bbox="20.001 28.5 160.002 143" xmlns="http://www.w3.org/2000/svg" width="200" height="200" viewBox="0 0 200 200" data-type="color">
    <g>
        <path fill="#161616" d="M76.279 171.5a9.194 9.194 0 0 1-2.827-.446 9.148 9.148 0 0 1-4.517-3.27 8.985 8.985 0 0 1-1.722-5.238c-.008-4.284-.015-6.964-.02-8.539l.007-6.31-1.313-.125a29.573 29.573 0 0 1-9.589-2.575l-.96-.441-23.013 24.674a7.16 7.16 0 0 1-5.223 2.259 7.114 7.114 0 0 1-4.821-1.866 7.005 7.005 0 0 1-.396-9.952l22.685-24.323-.62-.939a28.953 28.953 0 0 1-4.824-16.013c0-7.329 2.755-14.348 7.759-19.766a29.628 29.628 0 0 1 19.004-9.415l1.312-.124.001-1.305c.006-11.005.011-30.18.012-39.884v-1.437h-11.97a3.859 3.859 0 0 1-2.681-1.098 3.79 3.79 0 0 1-1.124-2.665c-.003-1.749-.003-3.5 0-5.249v-.101a8.936 8.936 0 0 1 .477-2.746 9.038 9.038 0 0 1 2.423-3.708c1.643-1.512 3.881-2.387 6.142-2.398h94.746a9.197 9.197 0 0 1 2.922.499 9.22 9.22 0 0 1 4.762 3.825 8.91 8.91 0 0 1 1.314 4.63c.005 1.74.003 3.483.002 5.226l-.002 110.855h11.97c.99.002 1.999.418 2.697 1.113a3.778 3.778 0 0 1 1.108 2.649c.003 1.744.003 3.486 0 5.233 0 .065 0 .126-.002.188a9.026 9.026 0 0 1-1.768 5.132 9.19 9.19 0 0 1-5.305 3.431 9.234 9.234 0 0 1-1.981.218H76.279zm21.103-45.809c-3.164 12.194-13.8 21.009-26.468 21.934l-1.344.098v14.792a6.692 6.692 0 0 0 1.935 4.674 6.805 6.805 0 0 0 4.742 1.976c9.425.038 19.687.056 31.376.056 10.458 0 20.917-.014 31.376-.028 7.609-.01 15.219-.02 22.827-.025l2.508-.002-1.252-2.153a8.972 8.972 0 0 1-1.215-4.468c-.004-2.051-.002-77.448 0-122.209v-2.854c0-2.361-1.344-4.637-3.423-5.798a6.737 6.737 0 0 0-3.276-.839 6.732 6.732 0 0 0-3.675 1.068c-1.865 1.208-3.031 3.328-3.044 5.535-.005 1.019-.003 2.036-.001 3.053.001.735.002 1.47.001 2.205a3.777 3.777 0 0 1-.749 2.234 3.902 3.902 0 0 1-3.048 1.525c-8.498.013-16.999.017-25.502.017-7.633 0-15.267-.003-22.9-.007l-26.678-.01v42.604l1.344.098a29.64 29.64 0 0 1 8.139 1.759l.246.091h41.677l.133.008.117.017c.43.085.818.472.907.915.073.365-.057.788-.324 1.052a1.228 1.228 0 0 1-.608.322c-.075.015-.106.015-.165.017l-.122.004-36.325-.001 3.071 2.54a29.693 29.693 0 0 1 4.759 4.968l.437.575h59.671l.133.008.117.017c.43.085.818.472.907.915a1.21 1.21 0 0 1-.324 1.052 1.228 1.228 0 0 1-.608.322c-.075.015-.106.015-.165.017l-.122.004-58.006-.001.989 2.056a28.99 28.99 0 0 1 1.847 4.964l.289 1.064h54.943l.133.008.117.017c.309.062.632.3.788.591.178.331.179.772.001 1.101-.16.297-.479.531-.812.597-.076.015-.107.015-.168.018l-.122.004-54.423-.001.142 1.566c.085.937.126 1.8.126 2.638 0 .704-.034 1.466-.103 2.33l-.123 1.551h54.443l.133.008.117.017c.309.062.632.3.788.591.178.331.179.772.001 1.101-.16.297-.479.531-.812.597-.076.015-.107.015-.168.018l-.122.004-54.802-.001-.281 1.084zm-73.793 35.54a4.717 4.717 0 0 0 .267 6.702 4.827 4.827 0 0 0 6.765-.264l22.616-24.249-1.367-.943a29.844 29.844 0 0 1-4.81-4.134l-1.067-1.134-22.404 24.022zm140.633 1.287c0 .851.169 1.713.488 2.494.777 1.896 2.495 3.401 4.485 3.927a6.82 6.82 0 0 0 5.57-.966c1.763-1.215 2.865-3.294 2.876-5.423.005-1.167.003-2.333.002-3.499l-.002-3.175-1.689-.006h-11.728v6.648zM68.718 91.377a27.273 27.273 0 0 0-15.323 4.681l-.634.428v43.82l.633.428a27.278 27.278 0 0 0 15.324 4.681c6.648 0 13.06-2.412 18.055-6.792l2.866-2.513h-21.06l-.096-.005a1.772 1.772 0 0 1-.385-.042 2.481 2.481 0 0 1-1.788-1.455 2.438 2.438 0 0 1 .102-2.074 2.549 2.549 0 0 1 1.924-1.277c.041-.004.09-.005.139-.007l.18-.008 24.059.002.401-.794a26.595 26.595 0 0 0 2.589-8.177l.241-1.642H68.578l-.095-.005a1.775 1.775 0 0 1-.386-.042 2.481 2.481 0 0 1-1.788-1.455c-.364-.871-.141-1.986.532-2.649a2.46 2.46 0 0 1 1.493-.702c.042-.004.092-.005.143-.007l.179-.008 27.256.002-.271-1.665a26.606 26.606 0 0 0-2.742-8.176l-.408-.772H68.578l-.096-.005a1.772 1.772 0 0 1-.385-.042 2.554 2.554 0 0 1-1.684-1.241 2.436 2.436 0 0 1-.103-2.078c.331-.79 1.165-1.402 2.028-1.487.034-.003.315-.014.315-.014l20.664.002-3.031-2.535a27.421 27.421 0 0 0-17.568-6.375zm-22.675 12.025c-3.007 4.451-4.597 9.636-4.597 14.994s1.59 10.543 4.597 14.994l2.656 3.93V99.472l-2.656 3.93zm14.376-72.567a6.842 6.842 0 0 0-4.295 1.613 6.71 6.71 0 0 0-2.33 5.011c-.002 1.166 0 6.662 0 6.662l92.295.006s-.002-5.498 0-6.658a8.881 8.881 0 0 1 1.216-4.474l1.264-2.159h-88.15zM78.908 161.08l-.047-.003c-.074-.003-.106-.004-.185-.019a1.226 1.226 0 0 1-.857-.698 1.186 1.186 0 0 1 .048-.995c.178-.332.55-.578.925-.614l.185-.008 52.516.002.133.008.117.017c.384.076.759.415.878.804.088.285.053.625-.089.888-.16.296-.478.531-.811.597-.076.015-.107.015-.168.018l-.089.003H78.908zm69.844-.821c-2.12 0-3.935-.59-5.394-1.754-1.483-1.182-2.549-2.903-3.168-5.114l-.295-1.053H137.7c-.025-.159-.039-2.049-.039-2.218 0-.323.032-.513.057-.613l13.116-.001c.027.162.041.341.041.533 0 .299-.03 2.202-.054 2.297l-8.486.002 1.214 2.141c.563.994 1.321 1.78 2.253 2.336.94.563 2.055.849 3.313.849 1.082 0 2.049-.161 2.875-.48.318-.122.628-.258.93-.408.137.33.204.721.204 1.18 0 .637-.261 1.11-.847 1.535-.691.502-1.91.768-3.525.768zM137.7 147.616a3.066 3.066 0 0 1-.039-.493c0-.323.031-2.238.056-2.337l2.137-.001.299-1.045a11.036 11.036 0 0 1 1.316-2.956c.554-.859 1.192-1.584 1.896-2.154a8.058 8.058 0 0 1 2.314-1.313 7.695 7.695 0 0 1 2.641-.454 9.93 9.93 0 0 1 2.336.28c.658.161 1.228.44 1.692.828.242.191.411.395.537.64.113.22.173.537.173.916 0 .394-.07.71-.22.99-.31-.177-.628-.34-.951-.487-.843-.381-1.808-.573-2.871-.573-1.261 0-2.37.289-3.297.86-.903.559-1.644 1.341-2.203 2.326l-1.214 2.142h8.532c.027.163.041 2.066.041 2.257 0 .3-.03.479-.054.573H137.7zm-32.473-64.685c-1.242 0-2.49-.36-3.512-1.013a6.454 6.454 0 0 1-2.895-4.511 6.397 6.397 0 0 1 1.166-4.589 6.49 6.49 0 0 1 5.071-2.636c.057-.003.169-.003.17-.003a6.55 6.55 0 0 1 4.385 1.735 6.384 6.384 0 0 1 1.92 3.495 6.452 6.452 0 0 1-1.117 4.888 6.505 6.505 0 0 1-4.018 2.527 6.406 6.406 0 0 1-1.17.107zm-.04-10.417c-1.593.008-3.09.984-3.727 2.428a4.034 4.034 0 0 0 .569 4.155 4.16 4.16 0 0 0 3.194 1.498c.26 0 .518-.025.767-.074a4.135 4.135 0 0 0 2.905-2.248 4.065 4.065 0 0 0-.152-3.725 4.167 4.167 0 0 0-3.542-2.035h-.014zm-19.812 6.605a1.07 1.07 0 0 1-.113-.006 1.221 1.221 0 0 1-1.004-.824 1.205 1.205 0 0 1 .149-.986c.044-.067.065-.088.099-.125l.1-.109 18.539-18.365.03-.024c.059-.053.083-.075.15-.12a1.168 1.168 0 0 1 .6-.193l.049-.002.13.006.083.011c.466.092.858.478.947.921.068.339-.024.701-.246.969l-.132.145L86.22 78.778l-.101.091c-.189.153-.472.25-.744.25zm-1.18-11.818a6.598 6.598 0 0 1-3.564-1.044c-1.532-1.002-2.594-2.669-2.841-4.459a6.384 6.384 0 0 1 1.173-4.624 6.496 6.496 0 0 1 5.06-2.621c.057-.003.169-.003.17-.003a6.55 6.55 0 0 1 4.385 1.735 6.384 6.384 0 0 1 1.92 3.495 6.452 6.452 0 0 1-1.117 4.888 6.505 6.505 0 0 1-4.018 2.527 6.48 6.48 0 0 1-1.168.106zm-.043-10.417a4.116 4.116 0 0 0-2.681 1.008c-1.336 1.167-1.756 3.165-.999 4.752.658 1.386 2.138 2.32 3.682 2.324 1.751 0 3.349-1.145 3.889-2.783a4.011 4.011 0 0 0-.284-3.174c-.695-1.276-2.089-2.111-3.55-2.127h-.057z" data-color="1"/>
    </g>
</svg>
