<?xml version="1.0" encoding="UTF-8"?>
<svg data-bbox="62.567 25.627 74.866 148.746" viewBox="0 0 200 200" height="200" width="200" xmlns="http://www.w3.org/2000/svg" data-type="color">
    <g>
        <path d="M100 174.373a6.488 6.488 0 0 1-6.487-6.487V99.688a6.488 6.488 0 0 1 12.974 0v68.197a6.488 6.488 0 0 1-6.487 6.488z" fill="#000010" data-color="1"/>
        <path d="M100 100.493c-20.641 0-37.433-16.792-37.433-37.433S79.359 25.627 100 25.627s37.433 16.792 37.433 37.433-16.792 37.433-37.433 37.433zm0-64.866c-15.126 0-27.433 12.306-27.433 27.433S84.874 90.493 100 90.493s27.433-12.307 27.433-27.433S115.126 35.627 100 35.627z" fill="#000010" data-color="1"/>
    </g>
</svg>
